<svg width="81" height="37" viewBox="0 0 81 37" fill="none" xmlns="http://www.w3.org/2000/svg">
<g clip-path="url(#clip0_9_8)">
<path fill-rule="evenodd" clip-rule="evenodd" d="M62.7719 7.52542C61.4153 11.555 60.0648 15.5858 58.742 19.6226C58.0803 21.6407 57.4309 23.6602 56.6692 25.6571C55.9294 27.5972 55.0207 29.6681 53.6964 31.4302C52.315 33.2691 50.5263 34.705 48.0509 35.6243C47.0611 35.9915 46.047 36.2435 44.983 36.4238C43.4733 36.6795 41.9568 36.7847 40.4227 36.8541C36.6236 37.0252 28.5643 36.9997 24.7664 36.9997L27.0948 30.1015C28.8573 30.1015 30.6195 30.1064 32.3817 30.0674C34.0822 30.0295 35.9534 29.9567 37.628 29.6403C39.462 29.2934 40.8458 28.6983 42.0579 27.5055C43.162 26.419 43.9043 25.0634 44.5125 23.7849C45.6235 21.45 46.761 18.107 47.5628 15.7027C48.4697 12.9812 49.3415 10.2527 50.2201 7.52542H62.7719ZM78.4619 7.52537L71.6886 27.5931H59.1371L65.91 7.52537H78.4619ZM37.0694 0H49.6213C48.3063 3.91724 46.9931 7.83476 45.663 11.7488C44.736 14.4756 43.8155 17.2034 42.8092 19.9127C42.3703 21.0937 41.9321 22.2713 41.3569 23.418C40.8946 24.339 40.3779 25.1586 39.4226 25.8469C38.709 26.3609 37.9308 26.6805 37.0246 26.9084C35.8588 27.2016 34.6804 27.3091 33.4758 27.388C31.7434 27.5015 30.0107 27.5304 28.2754 27.5528C24.2845 27.6041 17.0371 27.597 13.0462 27.5832C11.6121 27.578 10.178 27.5712 8.74399 27.5502C7.7044 27.5353 6.66588 27.5147 5.62772 27.4628C4.93454 27.4278 4.24673 27.3814 3.5618 27.2805C3.09705 27.2123 2.64951 27.1205 2.21345 26.9683C0.777238 26.4666 0.0453265 25.4639 0.0026526 24.2427C-0.022091 23.5438 0.129957 22.8782 0.304956 22.2023C0.553469 21.2448 0.862944 20.3005 1.16955 19.3551C1.75479 17.5489 2.82594 14.2161 3.66077 12.4618C4.31487 11.0869 5.17875 9.7187 6.82008 8.8484C7.73775 8.36193 8.70203 8.10336 9.76529 7.93222C10.5535 7.80552 11.3457 7.73844 12.145 7.69086C13.4837 7.61145 14.8234 7.58651 16.1646 7.56759C18.0706 7.54093 19.9765 7.5352 21.8825 7.53061L26.637 7.52545H31.3913L29.6979 12.5423C26.8721 12.5423 24.0471 12.536 21.2213 12.5492C20.3965 12.5532 19.5728 12.5483 18.7487 12.5913C18.4561 12.6065 18.1703 12.6217 17.8873 12.7008C17.5151 12.804 17.3311 12.9909 17.1676 13.2593C16.9284 13.652 16.7903 14.0662 16.6379 14.4807C16.4052 15.1137 16.1897 15.7504 15.9738 16.3873C15.6414 17.3686 15.309 18.3498 14.9934 19.3348C14.8768 19.6994 14.7624 20.064 14.6642 20.4321C14.595 20.6901 14.5326 20.9473 14.5017 21.2104C14.468 21.4982 14.4576 21.8439 14.6757 22.1111C14.8973 22.3823 15.272 22.4454 15.6217 22.4858C16.0168 22.5319 16.4127 22.542 16.8101 22.5514C17.4606 22.5672 18.1111 22.5695 18.7616 22.5721C20.5413 22.5789 22.3211 22.5792 24.1009 22.5703C24.921 22.5663 25.7404 22.5617 26.5598 22.5354C27.1242 22.5173 27.6815 22.5018 28.2374 22.3943C28.6598 22.3126 28.9901 22.1842 29.2759 21.9081C29.4692 21.7212 29.5954 21.514 29.7109 21.2938C29.9977 20.748 30.1982 20.183 30.4073 19.6183C31.2095 17.452 31.9321 15.2691 32.6704 13.0887L34.8756 6.54564L37.0694 0Z" fill="#E1E1E1"/>
</g>
<defs>
<clipPath id="clip0_9_8">
<rect width="81" height="37" fill="white"/>
</clipPath>
</defs>
</svg>
